<?xml version="1.0" encoding="UTF-8"?>
<svg id="Layer_2" data-name="Layer 2" xmlns="http://www.w3.org/2000/svg" viewBox="0 0 830.39 376.95">
  <defs>
    <style>
      .cls-1 {
        fill: #00f0ff;
        stroke-width: 0px;
      }
    </style>
  </defs>
  <g id="Layer_1-2" data-name="Layer 1">
    <path class="cls-1" d="m159.55,129.51c16.58,7.41,28.58,22.05,34.96,39.09,6.96,18.2,5.56,40.12-4.11,57.55-25.57,46.35-83.56,56.77-128.27,32.41C20.38,235.8-3.14,187.41.34,140.57c1.46-18.47,6.81-36.41,15.17-52.82C59.23,3.3,166.24-22.21,248.59,20.02c69.7,35.96,110.14,118.2,98.33,195.29,0,0-.98,6.54-.98,6.54,0,0-1.34,6.46-1.34,6.46-.68,3.65-2.13,9.17-3.16,12.79-1.77,6.3-3.83,12.62-6.27,18.68-1.37,3.62-3.49,8.64-5.16,12.06-12.42,26.69-30.62,50.75-52.97,69.95-29.45,25.43-69.19,43.98-108.17,29.43-19.99-7.09-36.97-20.84-54.28-31.16-9.78-5.66-21.77-11.67-32.53-10.23-2.18.38-3.58,1.04-4.35,1.56-.05,0,.02.02,0,0,0,0,0-.01-.02-.03,0,0,.03-.02.04-.03.03-.02.03-.07.03-.11.05-.03.08-.08.08-.13-.02-.07.04-.09.05-.13.03-.05-.03-.08,0-.15.06-.3.02-.56,0-.57.19,1.45,1.89,3,3.43,3.55,8.43,3.01,18.74.3,26.88-3.19,20.84-9.23,37.22-34.71,25.78-56.79-3.02-6.61-7.2-12.97-10.87-19.81-.55-1.02-3.23-6.11-3.71-7.03-4.33-8.94-8.24-18.44-11.16-27.93-6.19-19.96-9.09-41.02-8.17-61.88.66-14.37,3-28.73,7.67-42.36.67-1.93,1.37-3.85,2.11-5.74l1.51.22c1.64,16.12,3.44,31.52,6.75,46.48,6.11,29.09,16.62,57.61,31.58,83.18,5.83,9.95,14.4,22.55,17.66,35.35,6.65,25.02-3.44,51.74-21.24,69.42-17.6,17.56-43.43,28.29-68.54,24.29-16.95-2.71-31.99-16.1-34.12-33.72-2.1-16.17,8.2-30.77,23.12-36.47,30.63-12.04,62.57,7.87,87.06,23.73,25.05,16.02,42.29,23.58,70.51,9.75,10.49-5.2,20.59-12.67,29.34-20.74,25.52-23.12,43.44-54.53,51-87.97,14.84-64.02-16.56-135.03-74.97-165.63-39.54-20.27-89.61-21.25-128.96-.06-20.89,10.99-38.44,28.52-49.64,49.27-12.43,23.22-15.63,50.82-6.24,75.79,12.58,36.43,50.68,62.61,88.62,49.34,14.12-5.3,25.6-16.53,30.01-30.65,5.94-18.62,3.06-38.92-1.68-58.1-.98-4.03-2.2-7.93-3.2-12.04,0,0,1.14-1.01,1.14-1.01h0Z"/>
    <path class="cls-1" d="m311.84,370.2c28.91-11.98,55.94-28.3,81.44-46.21,11.95-7.87,22.31-18.27,29.18-30.86,11.78-20.6,16.87-54.66.06-73.2-10.18-10.65-25.99-4.99-35.95,3.52-18.99,16.73-24.43,46.02-16.08,69.66,7.96,22.46,27.21,39.9,49.37,48.76,8.83,3.62,18.94,5.91,28.12,5.4,11.61-.5,20.4-5.38,25.41-16.8,5.35-12.14,7.15-26.14,12.1-38.76,15.84-42.2,56.96-72.37,102.11-72.61,8.14-.05,16.22.75,24,2.55,0,0-.11,1.37-.11,1.37-8.65,1.25-17.06,2.97-25.14,5.32-22.55,6.57-44.24,18.75-56.46,39.25-12.65,21.37-12.91,43.71,2.58,63.65,9.76,13.06,27.13,20.45,41.25,9.26,5.33-4.18,9.35-9.86,13.49-15.25,2.07-2.77,4.23-5.57,6.26-8.44,20.55-29.89,16.51-72.33,28.82-106.58,0,0,1.32.07,1.32.07,1.66,7.56,2.75,15.21,3.59,22.85,2.98,27.62,2.54,55.64,9.33,82.16,2.88,11.17,6.48,22.46,14.91,29.7,5.84,3.84,13.5-.57,17.81-5.15,4.39-3.94,7.06-8.49,10.26-13.45,9.62-15.82,7.07-39.56,6.83-58.08.01-24.96-3.19-49.22-15.07-71.72,0,0,.93-.95.93-.95,7.64,8.71,12.45,19.41,16.45,30.15,3.97,10.76,7,21.81,10.61,32.63l-1.27.25c-9.86-5.08-13.01-15.86-9.08-25.84,5.68-17.57,19.04-32.52,37.08-38.67,8.69-3.06,18.05-3.29,27.09-1.91,6.3.79,12.99,2.6,18.68,5.23,4.26,1.84,8.81,4.27,13.02,6.15,10.79,4.1,20.09,12.59,28.39,18.73,5.17,3.97,10.78,6.41,17.19,3.8,0,0,.04.05.04.05-5.16,13.24-22.75,10.51-33.43,7.12-8.1-2.5-15.8-5.44-23.8-6.75-6.99-1.49-13.62-3.39-20.26-3.17-2.13,0-4.65.04-6.82.09-8.11-.15-15.11,2.71-21.5,8.2-3.74,3.19-6.99,7.27-9.36,11.62-1.99,4.57-4.9,7.39-9.09,10.47-2.13,1.61-4.58,3.33-6.84,4.8,0,0,0,4.06,0,4.06-4.15-12.08-7.48-24.47-11.88-36.4-3.94-10.6-8.71-21.17-16.21-29.73,0,0,.93-.95.93-.95,24.38,8.46,38.47,34.6,42.29,58.96,1.08,7.68,1.77,15.36,2.6,23.12,1.56,16.78,2.41,33.79-2.97,50.95-1.79,5.65-4.53,11.49-7.95,16.6-4.06,6.41-9.32,13.35-15.23,18.23-14.65,13.86-38.33,18.68-55.33,5.94-16.72-13.28-22.08-35.62-24.32-55.28-4.09-35.49,4.53-69.52,11.08-103.82,0,0,1.32.07,1.32.07.89,8.77,1.92,17.33,3.07,25.91,2.92,22.2,6.33,44.78,2.82,67.43-2.46,14.74-7.7,29.78-17.29,41.55-10.02,12.11-25.29,20.01-40.65,23.87-32.41,8.5-69.91-10.35-80.35-42.66-10.44-33.38,6.41-70.32,34.03-89.61,24.74-17.44,57.29-21.62,86.3-15.22,0,0-.11,1.37-.11,1.37-7.89-.16-15.69.42-23.28,1.81-22.08,3.98-43.48,15.25-58.38,31.64-11.09,11.93-19.19,26.52-23.48,42.14-2.53,9.29-3.39,18.67-5.47,28.34-4.07,20.85-14.3,38.23-35.3,45.91-22.87,8.18-47.7,3.24-68.97-6.5-29.11-13.38-53.89-39.53-62.17-71.23-8.66-32.49-.2-69.88,24.53-93.64,15.15-14.56,36.81-23.46,58.06-19.27,28.05,5.66,42.47,32.75,43.29,59.34.8,22.49-6.57,45.26-19.06,63.37-8.1,11.75-18.47,21.93-30.65,29.35-30.34,17.47-63.79,32.28-98.73,35.95h0Z"/>
  </g>
</svg>