<svg width="569" height="59" viewBox="0 0 569 59" fill="none" xmlns="http://www.w3.org/2000/svg">
<path d="M279.89 0.851408C256.787 -0.993521 218.558 -0.971071 135.407 12.8452L115.779 16.1111C60.6058 25.3064 29.9917 35.2387 8.88388 42.4523C0.645681 45.2682 -0.0742953 45.6438 0.00531753 47.0837C0.126468 49.1848 2.50531 53.5255 17.5053 50.0037C32.5053 46.482 47.0729 41.171 85.3148 34.982C213.128 14.2964 184.005 16.1111 261.815 12.8452C274.728 13.0322 289.453 11.5472 289.315 13.0806C289.13 15.1281 282.858 17.9349 267.315 23.982C229.253 36.8758 209.72 47.6672 207.52 50.0037C203.759 53.9982 207.171 57.6309 215.208 58.1969C219.801 58.5205 220.855 58.4686 242.195 56.8469C303.464 52.1982 342.48 50.8102 395.13 51.4073C475.308 52.3177 432.08 51.2873 524.315 55.4676C558.56 58.7975 557.837 56.5891 564.315 55.4676L566.665 55.4485C568.743 55.0972 569.313 52.29 567.355 51.4073C562.317 49.1401 559.005 46.3498 529.315 43.482C428.933 37.2005 473.792 37.8162 397.315 36.982C357.095 36.5424 339.754 38.1147 310.315 39.482C290.188 40.4166 252.3 45.6633 244.815 46.482C240.732 46.9302 246.02 45.6865 277.815 34.982C302.64 25.8732 308.461 19.7543 309.101 13.0806C309.823 5.55548 302.993 2.69635 279.89 0.851408Z" fill="#00F0FF"/>
</svg>
